<svg width="15" height="15" viewBox="0 0 15 15" fill="none" xmlns="http://www.w3.org/2000/svg">
<path d="M9.99999 13.7669V11.9731C10.0234 11.6751 9.98317 11.3755 9.88187 11.0942C9.78058 10.813 9.62057 10.5565 9.41249 10.3419C11.375 10.1231 13.4375 9.37937 13.4375 5.96687C13.4373 5.09426 13.1017 4.25512 12.5 3.62312C12.7849 2.85968 12.7648 2.01584 12.4437 1.26687C12.4437 1.26687 11.7062 1.04812 9.99999 2.19187C8.56749 1.80363 7.05748 1.80363 5.62499 2.19187C3.91874 1.04812 3.18124 1.26687 3.18124 1.26687C2.86022 2.01584 2.84008 2.85968 3.12499 3.62312C2.51882 4.2598 2.18281 5.10653 2.18749 5.98562C2.18749 9.37312 4.24999 10.1169 6.21249 10.3606C6.00686 10.5731 5.84828 10.8265 5.74705 11.1043C5.64583 11.3821 5.60424 11.6782 5.62499 11.9731V13.7669" stroke="#666666" stroke-width="1.5" stroke-linecap="round" stroke-linejoin="round"/>
<path d="M5.625 12.5168C3.75 13.125 2.1875 12.5168 1.25 10.6418" stroke="#666666" stroke-width="1.5" stroke-linecap="round" stroke-linejoin="round"/>
</svg>
