<svg width="27" height="27" viewBox="0 0 27 27" fill="none" xmlns="http://www.w3.org/2000/svg">
<path d="M1.97411 11.5067L2.35728 11.0178L7.22487 11.0154L6.91147 11.5043L1.97411 11.5066V11.5067ZM6.38893 12.7093L6.55035 12.2204L0.383115 12.2246L0 12.7135L6.38893 12.7093ZM6.21169 13.9162L6.25831 13.4274L3.45299 13.4296L3.18073 13.9185L6.21169 13.9162ZM24.1045 17.7447C21.4056 19.2315 17.7182 18.6018 16.7324 15.3782C16.1497 16.5247 15.1985 17.4644 14.0648 18.0002C11.3789 19.2698 7.73223 18.1626 7.26321 14.6834C6.91975 11.3486 9.6188 9.28797 11.2143 8.76769C13.7501 7.97779 16.2509 8.90596 17.1157 11.216L14.392 11.9299C14.1025 11.1246 12.5297 10.5447 11.3208 11.4188C9.41931 12.5919 9.45443 15.5443 11.7518 15.9827C12.9445 16.1356 13.7456 15.5462 14.3463 14.6397L11.3886 14.646L12.3389 12.5968H16.7716C18.6914 7.1806 26.1789 7.41775 26.9399 12.2846C27.2104 14.0144 26.6198 16.3591 24.1045 17.7447ZM21.6447 11.0437C19.5954 11.4846 19.0846 13.2949 19.4009 14.4547C19.7375 15.689 21.0415 16.4984 22.6959 15.7244C25.3474 14.4839 24.6523 10.3965 21.6447 11.0437Z" fill="#666666"/>
</svg>
