<svg width="28" height="28" viewBox="0 0 28 28" fill="none" xmlns="http://www.w3.org/2000/svg">
<path d="M24.7188 4.375H3.28125C3.16094 4.375 3.0625 4.47344 3.0625 4.59375V6.34375C3.0625 6.46406 3.16094 6.5625 3.28125 6.5625H24.7188C24.8391 6.5625 24.9375 6.46406 24.9375 6.34375V4.59375C24.9375 4.47344 24.8391 4.375 24.7188 4.375ZM24.7188 21.4375H3.28125C3.16094 21.4375 3.0625 21.5359 3.0625 21.6562V23.4062C3.0625 23.5266 3.16094 23.625 3.28125 23.625H24.7188C24.8391 23.625 24.9375 23.5266 24.9375 23.4062V21.6562C24.9375 21.5359 24.8391 21.4375 24.7188 21.4375ZM24.7188 12.9062H3.28125C3.16094 12.9062 3.0625 13.0047 3.0625 13.125V14.875C3.0625 14.9953 3.16094 15.0938 3.28125 15.0938H24.7188C24.8391 15.0938 24.9375 14.9953 24.9375 14.875V13.125C24.9375 13.0047 24.8391 12.9062 24.7188 12.9062Z" fill="#FDFDFD"/>
</svg>
