<svg width="29" height="29" viewBox="0 0 29 29" fill="none" xmlns="http://www.w3.org/2000/svg">
<path fill-rule="evenodd" clip-rule="evenodd" d="M22.237 6.80658C21.2321 5.79506 20.0364 4.99301 18.7193 4.44688C17.4022 3.90075 15.9899 3.62141 14.564 3.62503C8.58521 3.62503 3.71804 8.49099 3.71563 14.4722C3.71563 16.3838 4.21467 18.2495 5.16321 19.8952L3.625 25.5152L9.37546 24.006C10.9661 24.8719 12.7482 25.3259 14.5592 25.3267H14.564C20.5417 25.3267 25.4088 20.4607 25.4113 14.4795C25.4154 13.0542 25.1369 11.6423 24.5921 10.3253C24.0473 9.00831 23.2468 7.81236 22.237 6.80658ZM14.564 23.4961H14.5604C12.9455 23.4962 11.3603 23.0618 9.97117 22.2382L9.6425 22.0424L6.23017 22.9378L7.14004 19.6113L6.92617 19.2705C6.02329 17.8331 5.54532 16.1697 5.54746 14.4722C5.54988 9.50116 9.59417 5.45687 14.5677 5.45687C15.7521 5.45424 16.9254 5.68655 18.0195 6.14036C19.1135 6.59418 20.1068 7.26048 20.9416 8.1007C21.781 8.93692 22.4462 9.9312 22.899 11.0261C23.3517 12.1209 23.583 13.2947 23.5794 14.4795C23.577 19.4506 19.5327 23.4961 14.564 23.4961ZM19.5098 16.7427C19.2379 16.6062 17.9063 15.9512 17.6574 15.8606C17.4097 15.77 17.2296 15.7253 17.0484 15.996C16.8671 16.2666 16.3475 16.8768 16.1892 17.0581C16.031 17.2393 15.8727 17.2611 15.602 17.1257C15.3313 16.9904 14.4577 16.704 13.4222 15.7809C12.6162 15.0619 12.0725 14.175 11.9142 13.9031C11.7559 13.6312 11.8973 13.485 12.0338 13.3497C12.1558 13.2289 12.3045 13.0331 12.4398 12.8748C12.5751 12.7165 12.6198 12.6042 12.7105 12.4229C12.8011 12.2417 12.7564 12.0834 12.6875 11.948C12.6198 11.8115 12.0773 10.4775 11.8513 9.93495C11.6326 9.40933 11.4091 9.47941 11.2423 9.47216C11.0696 9.4651 10.8968 9.46187 10.724 9.46249C10.5865 9.46599 10.4513 9.49786 10.3267 9.55608C10.2022 9.6143 10.091 9.69762 10.0002 9.80083C9.75125 10.0727 9.05163 10.7276 9.05163 12.0616C9.05163 13.3956 10.0231 14.6849 10.1585 14.8662C10.2938 15.0474 12.07 17.7843 14.7888 18.9588C15.4365 19.2379 15.9415 19.4047 16.3343 19.5303C16.9831 19.7369 17.574 19.7067 18.0416 19.6379C18.5624 19.5605 19.6451 18.983 19.871 18.3498C20.097 17.7166 20.097 17.1741 20.0293 17.0605C19.9617 16.9469 19.7792 16.878 19.5098 16.7427Z" fill="#FDFDFD"/>
</svg>
